<svg version="1.2" xmlns="http://www.w3.org/2000/svg" viewBox="0 0 630 628" width="630" height="628">
	<style>
		.s0 { fill: none;stroke: #33363f;stroke-linecap: round;stroke-width: 66.7 } 
		.s1 { fill: none;stroke: #33363f;stroke-linecap: round;stroke-linejoin: round;stroke-width: 66.7 } 
		.s2 { fill: #33363f } 
	</style>
	<path class="s0" d="m59.33 46.33h54.19c18.91 0 28.37 0 35.88 4.15 3.1 1.71 5.91 3.9 8.32 6.49 5.84 6.29 8.14 15.46 12.72 33.81l6.06 24.21c3.37 13.48 5.05 20.22 7.65 25.87 9.03 19.62 27 33.66 48.23 37.66 6.12 1.15 13.06 1.15 26.95 1.15"/>
	<path class="s1" d="m526 479.67h-348.3c-4.88 0-7.31 0-9.16-0.21-19.59-2.19-33-20.81-28.89-40.08 0.39-1.82 1.16-4.13 2.7-8.76 1.71-5.13 2.56-7.7 3.51-9.96 9.68-23.19 31.57-38.97 56.62-40.81 2.45-0.18 5.16-0.18 10.57-0.18h179.62"/>
	<path class="s0" d="m410.26 379.67h-118.45c-40.53 0-60.8 0-76.43-9.18-6.6-3.88-12.48-8.86-17.39-14.74-11.63-13.91-14.96-33.9-21.62-73.88-6.75-40.51-10.13-60.76-2.12-75.76 3.35-6.26 7.99-11.74 13.62-16.07 13.48-10.37 34.01-10.37 75.08-10.37h221.85c48.34 0 72.52 0 82.29 15.81 9.77 15.8-1.04 37.43-22.66 80.67l-14.91 29.81c-17.93 35.86-26.9 53.79-43.01 63.75-16.11 9.96-36.15 9.96-76.25 9.96z"/>
	<path fill-rule="evenodd" class="s2" d="m492.67 613c-18.44 0-33.34-14.9-33.34-33.33 0-18.44 14.9-33.34 33.34-33.34 18.43 0 33.33 14.9 33.33 33.34 0 18.43-14.9 33.33-33.33 33.33z"/>
	<path fill-rule="evenodd" class="s2" d="m226 613c-18.43 0-33.33-14.9-33.33-33.33 0-18.44 14.9-33.34 33.33-33.34 18.43 0 33.33 14.9 33.33 33.34 0 18.43-14.9 33.33-33.33 33.33z"/>
</svg>